<svg xmlns="http://www.w3.org/2000/svg" viewBox="0 0 24 24">
	<path fill="#ff9100" d="M18.217 8.974c-.45-.623-1.482-1.904-3.07-3.808c-.689-.825-1.28-1.526-1.57-1.87l-.408-.48l-.173-.205l-.094-.11l-.018-.027l-.008-.004l-.4-.47l-.509.407a11.1 11.1 0 0 0-3.069 3.866a9.5 9.5 0 0 0-.87 2.647q-.06.303-.1.615a9 9 0 0 0-.577-.03a6.2 6.2 0 0 0-1.901.229l-.265.074l-.136.238a8 8 0 0 0-1.044 3.68a8 8 0 0 0 5.006 7.697l.197.079l.06.02h.002a8 8 0 0 0 2.452.473q.143.005.286.005a7.9 7.9 0 0 0 3.076-.618l.007.003l.261-.12a7.99 7.99 0 0 0 4.643-6.981a8.5 8.5 0 0 0-1.778-5.31M9.837 19.82l-.192-.074l-.051-.02a6.31 6.31 0 0 1-3.897-6.048a6.2 6.2 0 0 1 .697-2.667a4.6 4.6 0 0 1 .759-.103l.065-.002a8 8 0 0 1 .378 0c.108.005.215.021.322.034a13 13 0 0 0 .918 4.007a10.1 10.1 0 0 0 2.474 3.61a6.4 6.4 0 0 1-1.473 1.263m.351-5.486a11.4 11.4 0 0 1-.767-3.125a4.6 4.6 0 0 1 .95.461a4.73 4.73 0 0 1 1.94 2.884a5 5 0 0 1 .12.649a4.2 4.2 0 0 1-.288 2.023a8.3 8.3 0 0 1-1.955-2.892m1.741 5.858a8 8 0 0 0 .553-.62c.233.177.485.332.73.495a6.3 6.3 0 0 1-1.283.125m5.432-2.97a6.34 6.34 0 0 1-2.212 2.138a12.4 12.4 0 0 1-1.851-1.15a5.84 5.84 0 0 0 .309-3.998a6.02 6.02 0 0 0-2.504-3.664a6.1 6.1 0 0 0-1.679-.74a8 8 0 0 1 .064-.496a9 9 0 0 1 .465-1.598q.117-.298.253-.584l.004-.007c.14-.282.296-.567.481-.872l.073-.12h-.002a9.2 9.2 0 0 1 1.534-1.824l.227.269c.53.628 1.03 1.222 1.483 1.765c1.02 1.223 2.342 2.828 2.852 3.536a6.8 6.8 0 0 1 1.446 4.242a6.3 6.3 0 0 1-.943 3.104" />
</svg>
